<?xml version="1.0" encoding="UTF-8" standalone="no"?><!-- Generator: Gravit.io --><svg xmlns="http://www.w3.org/2000/svg" xmlns:xlink="http://www.w3.org/1999/xlink" style="isolation:isolate" viewBox="0 0 1080 90" width="1080pt" height="90pt"><defs><clipPath id="_clipPath_THS3PXXNmAPnDN3pwxwboIcs1CRaHb2K"><rect width="1080" height="90"/></clipPath></defs><g clip-path="url(#_clipPath_THS3PXXNmAPnDN3pwxwboIcs1CRaHb2K)"><rect width="1080" height="90" style="fill:rgb(191,169,109)"/><g><path d=" M 110.819 45.073 C 110.819 41.11 114.025 37.893 117.975 37.893 C 121.925 37.893 125.132 41.11 125.132 45.073 C 125.132 49.035 121.925 52.253 117.975 52.253 C 114.025 52.253 110.819 49.035 110.819 45.073 Z  M 103.68 45.073 C 103.68 37.157 110.085 30.73 117.975 30.73 C 125.865 30.73 132.271 37.157 132.271 45.073 C 132.271 52.988 125.865 59.415 117.975 59.415 C 110.085 59.415 103.68 52.988 103.68 45.073 Z " fill-rule="evenodd" fill="rgb(188,190,196)"/><path d=" M 109.414 18.88 L 111.117 22.866 L 112.724 26.979 L 114.749 26.465 L 116.999 26.176 L 119.152 26.176 L 120.952 26.465 L 122.784 26.979 L 124.95 27.622 L 126.75 28.361 L 128.068 29.127 L 129.289 30.001 L 130.607 30.997 L 131.764 32.154 L 132.76 33.407 L 133.711 34.729 L 134.547 36.152 L 135.254 37.598 L 135.865 39.349 L 136.282 40.896 L 136.54 42.374 L 136.681 44.348 L 136.681 45.929 L 136.54 47.761 L 136.096 49.991 L 135.55 51.534 L 134.778 53.366 L 133.711 55.134 L 132.419 56.869 L 131.262 58.315 L 129.816 59.505 L 128.37 60.565 L 127.116 61.336 L 130.33 69.403 L 131.429 69.076 L 132.586 69.076 L 133.711 69.403 L 134.778 70.072 L 135.865 70.994 L 136.829 71.872 L 137.536 72.547 L 138.211 72.932 L 139.014 72.932 L 139.754 72.193 L 145.462 66.569 L 145.95 65.794 L 145.95 65.09 L 145.462 64.415 L 144.343 63.387 L 143.411 62.359 L 142.64 61.519 L 142.158 60.205 L 141.965 58.855 L 142.158 57.756 L 144.022 53.684 L 144.6 52.421 L 145.307 51.842 L 146.111 51.232 L 146.946 50.91 L 148.2 50.91 L 150.938 50.91 L 151.742 50.756 L 152.224 50.274 L 152.577 49.471 L 152.577 40.896 L 152.577 40.264 L 152.082 39.669 L 151.407 39.212 L 147.422 39.212 L 146.374 38.935 L 145.307 38.325 L 144.6 37.598 L 144.022 36.814 L 143.411 34.729 L 142.967 33.793 L 142.64 32.925 L 142.158 31.911 L 141.965 30.675 L 142.158 29.39 L 142.813 28.361 L 143.81 27.269 L 145.462 25.597 L 145.95 24.743 L 145.68 23.843 L 139.574 17.672 L 138.777 17.068 L 138.005 17.068 L 137.105 17.672 L 134.92 19.767 L 134.277 20.282 L 133.345 20.732 L 132.124 20.956 L 131.063 20.732 L 130.028 20.417 L 128.37 19.767 L 127.116 19.099 L 126.011 18.713 L 124.95 18.167 L 124.243 17.068 L 123.793 16.206 L 123.632 12.092 L 123.465 11.096 L 122.784 10.453 L 113.605 10.453 L 112.724 10.73 L 112.223 11.34 L 112.223 15.101 L 111.998 16.033 L 111.548 17.068 L 110.841 17.978 L 109.414 18.88 Z " fill="rgb(188,190,196)"/><path d=" M 126.75 71.12 L 125.047 67.134 L 123.44 63.021 L 121.415 63.535 L 119.165 63.824 L 117.012 63.824 L 115.212 63.535 L 113.38 63.021 L 111.214 62.378 L 109.414 61.639 L 108.096 60.873 L 106.875 59.999 L 105.557 59.003 L 104.4 57.846 L 103.404 56.593 L 102.453 55.271 L 101.617 53.848 L 100.91 52.402 L 100.299 50.651 L 99.881 49.104 L 99.624 47.626 L 99.483 45.652 L 99.483 44.071 L 99.624 42.239 L 100.068 40.009 L 100.614 38.466 L 101.385 36.634 L 102.453 34.866 L 103.745 33.131 L 104.902 31.685 L 106.348 30.495 L 107.794 29.435 L 109.048 28.664 L 105.834 20.597 L 104.734 20.924 L 103.577 20.924 L 102.453 20.597 L 101.385 19.928 L 100.299 19.006 L 99.335 18.128 L 98.628 17.453 L 97.953 17.068 L 97.15 17.068 L 96.41 17.807 L 90.702 23.431 L 90.214 24.206 L 90.214 24.91 L 90.702 25.585 L 91.821 26.613 L 92.753 27.641 L 93.524 28.481 L 94.006 29.795 L 94.199 31.145 L 94.006 32.244 L 92.142 36.316 L 91.564 37.579 L 90.857 38.158 L 90.053 38.768 L 89.218 39.09 L 87.964 39.09 L 85.226 39.09 L 84.422 39.244 L 83.94 39.726 L 83.587 40.529 L 83.587 49.104 L 83.587 49.736 L 84.082 50.331 L 84.757 50.788 L 88.742 50.788 L 89.79 51.065 L 90.857 51.675 L 91.564 52.402 L 92.142 53.186 L 92.753 55.271 L 93.196 56.207 L 93.524 57.075 L 94.006 58.089 L 94.199 59.325 L 94.006 60.61 L 93.351 61.639 L 92.354 62.731 L 90.702 64.403 L 90.214 65.257 L 90.484 66.157 L 96.59 72.328 L 97.387 72.932 L 98.159 72.932 L 99.059 72.328 L 101.244 70.233 L 101.887 69.718 L 102.819 69.268 L 104.04 69.044 L 105.101 69.268 L 106.136 69.583 L 107.794 70.233 L 109.048 70.901 L 110.153 71.287 L 111.214 71.833 L 111.921 72.932 L 112.371 73.794 L 112.531 77.908 L 112.699 78.904 L 113.38 79.547 L 122.559 79.547 L 123.44 79.27 L 123.941 78.66 L 123.941 74.899 L 124.166 73.967 L 124.616 72.932 L 125.323 72.022 L 126.75 71.12 Z " fill="rgb(13,17,23)"/></g><g><path d=" M 942.002 45.073 C 942.002 41.11 945.208 37.893 949.158 37.893 C 953.108 37.893 956.315 41.11 956.315 45.073 C 956.315 49.035 953.108 52.253 949.158 52.253 C 945.208 52.253 942.002 49.035 942.002 45.073 Z  M 934.863 45.073 C 934.863 37.157 941.268 30.73 949.158 30.73 C 957.048 30.73 963.454 37.157 963.454 45.073 C 963.454 52.988 957.048 59.415 949.158 59.415 C 941.268 59.415 934.863 52.988 934.863 45.073 Z " fill-rule="evenodd" fill="rgb(188,190,196)"/><path d=" M 940.597 18.88 L 942.3 22.866 L 943.907 26.979 L 945.932 26.465 L 948.182 26.176 L 950.335 26.176 L 952.135 26.465 L 953.967 26.979 L 956.133 27.622 L 957.933 28.361 L 959.251 29.127 L 960.472 30.001 L 961.79 30.997 L 962.947 32.154 L 963.943 33.407 L 964.894 34.729 L 965.73 36.152 L 966.437 37.598 L 967.048 39.349 L 967.465 40.896 L 967.722 42.374 L 967.864 44.348 L 967.864 45.929 L 967.722 47.761 L 967.279 49.991 L 966.733 51.534 L 965.961 53.366 L 964.894 55.134 L 963.602 56.869 L 962.445 58.315 L 960.999 59.505 L 959.553 60.565 L 958.299 61.336 L 961.513 69.403 L 962.612 69.076 L 963.769 69.076 L 964.894 69.403 L 965.961 70.072 L 967.048 70.994 L 968.012 71.872 L 968.719 72.547 L 969.394 72.932 L 970.197 72.932 L 970.936 72.193 L 976.644 66.569 L 977.133 65.794 L 977.133 65.09 L 976.644 64.415 L 975.526 63.387 L 974.594 62.359 L 973.823 61.519 L 973.34 60.205 L 973.148 58.855 L 973.34 57.756 L 975.205 53.684 L 975.783 52.421 L 976.49 51.842 L 977.294 51.232 L 978.129 50.91 L 979.383 50.91 L 982.121 50.91 L 982.924 50.756 L 983.407 50.274 L 983.76 49.471 L 983.76 40.896 L 983.76 40.264 L 983.265 39.669 L 982.59 39.212 L 978.605 39.212 L 977.557 38.935 L 976.49 38.325 L 975.783 37.598 L 975.205 36.814 L 974.594 34.729 L 974.15 33.793 L 973.823 32.925 L 973.34 31.911 L 973.148 30.675 L 973.34 29.39 L 973.996 28.361 L 974.992 27.269 L 976.644 25.597 L 977.133 24.743 L 976.863 23.843 L 970.756 17.672 L 969.959 17.068 L 969.188 17.068 L 968.288 17.672 L 966.103 19.767 L 965.46 20.282 L 964.528 20.732 L 963.307 20.956 L 962.246 20.732 L 961.211 20.417 L 959.553 19.767 L 958.299 19.099 L 957.194 18.713 L 956.133 18.167 L 955.426 17.068 L 954.976 16.206 L 954.815 12.092 L 954.648 11.096 L 953.967 10.453 L 944.788 10.453 L 943.907 10.73 L 943.406 11.34 L 943.406 15.101 L 943.181 16.033 L 942.731 17.068 L 942.024 17.978 L 940.597 18.88 Z " fill="rgb(188,190,196)"/><path d=" M 957.933 71.12 L 956.229 67.134 L 954.622 63.021 L 952.598 63.535 L 950.348 63.824 L 948.195 63.824 L 946.395 63.535 L 944.563 63.021 L 942.397 62.378 L 940.597 61.639 L 939.279 60.873 L 938.058 59.999 L 936.74 59.003 L 935.583 57.846 L 934.587 56.593 L 933.635 55.271 L 932.8 53.848 L 932.093 52.402 L 931.482 50.651 L 931.064 49.104 L 930.807 47.626 L 930.666 45.652 L 930.666 44.071 L 930.807 42.239 L 931.251 40.009 L 931.797 38.466 L 932.568 36.634 L 933.635 34.866 L 934.927 33.131 L 936.084 31.685 L 937.531 30.495 L 938.977 29.435 L 940.23 28.664 L 937.016 20.597 L 935.917 20.924 L 934.76 20.924 L 933.635 20.597 L 932.568 19.928 L 931.482 19.006 L 930.518 18.128 L 929.811 17.453 L 929.136 17.068 L 928.332 17.068 L 927.593 17.807 L 921.885 23.431 L 921.397 24.206 L 921.397 24.91 L 921.885 25.585 L 923.004 26.613 L 923.936 27.641 L 924.707 28.481 L 925.189 29.795 L 925.382 31.145 L 925.189 32.244 L 923.325 36.316 L 922.747 37.579 L 922.04 38.158 L 921.236 38.768 L 920.4 39.09 L 919.147 39.09 L 916.409 39.09 L 915.605 39.244 L 915.123 39.726 L 914.77 40.529 L 914.77 49.104 L 914.77 49.736 L 915.265 50.331 L 915.939 50.788 L 919.925 50.788 L 920.972 51.065 L 922.04 51.675 L 922.747 52.402 L 923.325 53.186 L 923.936 55.271 L 924.379 56.207 L 924.707 57.075 L 925.189 58.089 L 925.382 59.325 L 925.189 60.61 L 924.534 61.639 L 923.537 62.731 L 921.885 64.403 L 921.397 65.257 L 921.667 66.157 L 927.773 72.328 L 928.57 72.932 L 929.342 72.932 L 930.241 72.328 L 932.427 70.233 L 933.07 69.718 L 934.002 69.268 L 935.223 69.044 L 936.284 69.268 L 937.319 69.583 L 938.977 70.233 L 940.23 70.901 L 941.336 71.287 L 942.397 71.833 L 943.104 72.932 L 943.554 73.794 L 943.714 77.908 L 943.881 78.904 L 944.563 79.547 L 953.742 79.547 L 954.622 79.27 L 955.124 78.66 L 955.124 74.899 L 955.349 73.967 L 955.799 72.932 L 956.506 72.022 L 957.933 71.12 Z " fill="rgb(13,17,23)"/></g><g><path d=" M 526.374 45.073 C 526.374 41.11 529.58 37.893 533.53 37.893 C 537.48 37.893 540.687 41.11 540.687 45.073 C 540.687 49.035 537.48 52.253 533.53 52.253 C 529.58 52.253 526.374 49.035 526.374 45.073 Z  M 519.235 45.073 C 519.235 37.157 525.64 30.73 533.53 30.73 C 541.42 30.73 547.826 37.157 547.826 45.073 C 547.826 52.988 541.42 59.415 533.53 59.415 C 525.64 59.415 519.235 52.988 519.235 45.073 Z " fill-rule="evenodd" fill="rgb(188,190,196)"/><path d=" M 524.969 18.88 L 526.672 22.866 L 528.279 26.979 L 530.304 26.465 L 532.554 26.176 L 534.707 26.176 L 536.507 26.465 L 538.339 26.979 L 540.505 27.622 L 542.305 28.361 L 543.622 29.127 L 544.844 30.001 L 546.161 30.997 L 547.318 32.154 L 548.315 33.407 L 549.266 34.729 L 550.102 36.152 L 550.809 37.598 L 551.419 39.349 L 551.837 40.896 L 552.094 42.374 L 552.236 44.348 L 552.236 45.929 L 552.094 47.761 L 551.651 49.991 L 551.104 51.534 L 550.333 53.366 L 549.266 55.134 L 547.974 56.869 L 546.817 58.315 L 545.371 59.505 L 543.925 60.565 L 542.671 61.336 L 545.885 69.403 L 546.984 69.076 L 548.141 69.076 L 549.266 69.403 L 550.333 70.072 L 551.419 70.994 L 552.384 71.872 L 553.091 72.547 L 553.766 72.932 L 554.569 72.932 L 555.308 72.193 L 561.016 66.569 L 561.505 65.794 L 561.505 65.09 L 561.016 64.415 L 559.898 63.387 L 558.966 62.359 L 558.194 61.519 L 557.712 60.205 L 557.519 58.855 L 557.712 57.756 L 559.576 53.684 L 560.155 52.421 L 560.862 51.842 L 561.665 51.232 L 562.501 50.91 L 563.755 50.91 L 566.493 50.91 L 567.296 50.756 L 567.778 50.274 L 568.132 49.471 L 568.132 40.896 L 568.132 40.264 L 567.637 39.669 L 566.962 39.212 L 562.977 39.212 L 561.929 38.935 L 560.862 38.325 L 560.155 37.598 L 559.576 36.814 L 558.966 34.729 L 558.522 33.793 L 558.194 32.925 L 557.712 31.911 L 557.519 30.675 L 557.712 29.39 L 558.368 28.361 L 559.364 27.269 L 561.016 25.597 L 561.505 24.743 L 561.235 23.843 L 555.128 17.672 L 554.331 17.068 L 553.56 17.068 L 552.66 17.672 L 550.475 19.767 L 549.832 20.282 L 548.9 20.732 L 547.678 20.956 L 546.618 20.732 L 545.583 20.417 L 543.925 19.767 L 542.671 19.099 L 541.565 18.713 L 540.505 18.167 L 539.798 17.068 L 539.348 16.206 L 539.187 12.092 L 539.02 11.096 L 538.339 10.453 L 529.16 10.453 L 528.279 10.73 L 527.778 11.34 L 527.778 15.101 L 527.553 16.033 L 527.103 17.068 L 526.396 17.978 L 524.969 18.88 Z " fill="rgb(188,190,196)"/><path d=" M 542.305 71.12 L 540.601 67.134 L 538.994 63.021 L 536.97 63.535 L 534.72 63.824 L 532.566 63.824 L 530.767 63.535 L 528.935 63.021 L 526.768 62.378 L 524.969 61.639 L 523.651 60.873 L 522.43 59.999 L 521.112 59.003 L 519.955 57.846 L 518.959 56.593 L 518.007 55.271 L 517.172 53.848 L 516.465 52.402 L 515.854 50.651 L 515.436 49.104 L 515.179 47.626 L 515.038 45.652 L 515.038 44.071 L 515.179 42.239 L 515.623 40.009 L 516.169 38.466 L 516.94 36.634 L 518.007 34.866 L 519.299 33.131 L 520.456 31.685 L 521.903 30.495 L 523.349 29.435 L 524.602 28.664 L 521.388 20.597 L 520.289 20.924 L 519.132 20.924 L 518.007 20.597 L 516.94 19.928 L 515.854 19.006 L 514.89 18.128 L 514.183 17.453 L 513.508 17.068 L 512.704 17.068 L 511.965 17.807 L 506.257 23.431 L 505.769 24.206 L 505.769 24.91 L 506.257 25.585 L 507.376 26.613 L 508.308 27.641 L 509.079 28.481 L 509.561 29.795 L 509.754 31.145 L 509.561 32.244 L 507.697 36.316 L 507.118 37.579 L 506.411 38.158 L 505.608 38.768 L 504.772 39.09 L 503.519 39.09 L 500.781 39.09 L 499.977 39.244 L 499.495 39.726 L 499.141 40.529 L 499.141 49.104 L 499.141 49.736 L 499.636 50.331 L 500.311 50.788 L 504.297 50.788 L 505.344 51.065 L 506.411 51.675 L 507.118 52.402 L 507.697 53.186 L 508.308 55.271 L 508.751 56.207 L 509.079 57.075 L 509.561 58.089 L 509.754 59.325 L 509.561 60.61 L 508.905 61.639 L 507.909 62.731 L 506.257 64.403 L 505.769 65.257 L 506.039 66.157 L 512.145 72.328 L 512.942 72.932 L 513.713 72.932 L 514.613 72.328 L 516.799 70.233 L 517.442 69.718 L 518.374 69.268 L 519.595 69.044 L 520.656 69.268 L 521.69 69.583 L 523.349 70.233 L 524.602 70.901 L 525.708 71.287 L 526.768 71.833 L 527.476 72.932 L 527.926 73.794 L 528.086 77.908 L 528.253 78.904 L 528.935 79.547 L 538.114 79.547 L 538.994 79.27 L 539.496 78.66 L 539.496 74.899 L 539.721 73.967 L 540.171 72.932 L 540.878 72.022 L 542.305 71.12 Z " fill="rgb(13,17,23)"/></g><g><path d=" M 309.729 32.645 C 309.729 30.105 311.785 28.043 314.317 28.043 C 316.849 28.043 318.904 30.105 318.904 32.645 C 318.904 35.186 316.849 37.248 314.317 37.248 C 311.785 37.248 309.729 35.186 309.729 32.645 Z  M 305.153 32.645 C 305.153 27.571 309.259 23.452 314.317 23.452 C 319.374 23.452 323.481 27.571 323.481 32.645 C 323.481 37.72 319.374 41.839 314.317 41.839 C 309.259 41.839 305.153 37.72 305.153 32.645 Z " fill-rule="evenodd" fill="rgb(188,190,196)"/><path d=" M 308.829 15.855 L 309.921 18.41 L 310.951 21.047 L 312.249 20.717 L 313.691 20.532 L 315.071 20.532 L 316.225 20.717 L 317.399 21.047 L 318.788 21.459 L 319.942 21.933 L 320.786 22.424 L 321.569 22.984 L 322.414 23.622 L 323.156 24.364 L 323.794 25.168 L 324.404 26.015 L 324.94 26.927 L 325.393 27.854 L 325.784 28.976 L 326.052 29.968 L 326.217 30.916 L 326.308 32.181 L 326.308 33.194 L 326.217 34.369 L 325.933 35.798 L 325.583 36.787 L 325.088 37.962 L 324.404 39.095 L 323.576 40.207 L 322.834 41.134 L 321.907 41.897 L 320.98 42.577 L 320.176 43.071 L 322.237 48.242 L 322.941 48.032 L 323.683 48.032 L 324.404 48.242 L 325.088 48.671 L 325.784 49.262 L 326.403 49.824 L 326.856 50.257 L 327.288 50.504 L 327.803 50.504 L 328.277 50.03 L 331.936 46.425 L 332.249 45.928 L 332.249 45.477 L 331.936 45.045 L 331.219 44.385 L 330.622 43.726 L 330.127 43.188 L 329.818 42.346 L 329.695 41.48 L 329.818 40.776 L 331.013 38.165 L 331.384 37.356 L 331.837 36.985 L 332.352 36.594 L 332.888 36.388 L 333.692 36.388 L 335.447 36.388 L 335.962 36.289 L 336.271 35.98 L 336.498 35.465 L 336.498 29.968 L 336.498 29.563 L 336.18 29.181 L 335.748 28.888 L 333.193 28.888 L 332.521 28.711 L 331.837 28.32 L 331.384 27.854 L 331.013 27.351 L 330.622 26.015 L 330.338 25.415 L 330.127 24.859 L 329.818 24.208 L 329.695 23.416 L 329.818 22.592 L 330.239 21.933 L 330.877 21.232 L 331.936 20.161 L 332.249 19.613 L 332.076 19.036 L 328.162 15.081 L 327.651 14.693 L 327.157 14.693 L 326.58 15.081 L 325.179 16.424 L 324.767 16.754 L 324.169 17.042 L 323.386 17.186 L 322.706 17.042 L 322.043 16.84 L 320.98 16.424 L 320.176 15.995 L 319.468 15.748 L 318.788 15.398 L 318.335 14.693 L 318.046 14.141 L 317.943 11.504 L 317.836 10.865 L 317.399 10.453 L 311.515 10.453 L 310.951 10.631 L 310.629 11.022 L 310.629 13.432 L 310.485 14.03 L 310.197 14.693 L 309.743 15.277 L 308.829 15.855 Z " fill="rgb(188,190,196)"/><path d=" M 319.942 49.342 L 318.85 46.788 L 317.82 44.151 L 316.522 44.48 L 315.079 44.666 L 313.699 44.666 L 312.545 44.48 L 311.371 44.151 L 309.982 43.739 L 308.829 43.265 L 307.984 42.774 L 307.201 42.214 L 306.356 41.575 L 305.615 40.834 L 304.976 40.03 L 304.366 39.183 L 303.831 38.271 L 303.377 37.344 L 302.986 36.221 L 302.718 35.23 L 302.553 34.282 L 302.463 33.017 L 302.463 32.003 L 302.553 30.829 L 302.838 29.399 L 303.188 28.41 L 303.682 27.236 L 304.366 26.103 L 305.194 24.99 L 305.936 24.063 L 306.863 23.301 L 307.79 22.621 L 308.594 22.127 L 306.534 16.955 L 305.829 17.166 L 305.087 17.166 L 304.366 16.955 L 303.682 16.527 L 302.986 15.936 L 302.368 15.373 L 301.915 14.941 L 301.482 14.693 L 300.967 14.693 L 300.493 15.167 L 296.834 18.773 L 296.521 19.269 L 296.521 19.72 L 296.834 20.153 L 297.551 20.812 L 298.148 21.471 L 298.643 22.01 L 298.952 22.852 L 299.076 23.717 L 298.952 24.422 L 297.757 27.032 L 297.386 27.842 L 296.933 28.213 L 296.418 28.604 L 295.882 28.81 L 295.079 28.81 L 293.323 28.81 L 292.808 28.909 L 292.499 29.218 L 292.273 29.733 L 292.273 35.23 L 292.273 35.635 L 292.59 36.016 L 293.023 36.309 L 295.577 36.309 L 296.249 36.486 L 296.933 36.878 L 297.386 37.344 L 297.757 37.846 L 298.148 39.183 L 298.433 39.783 L 298.643 40.339 L 298.952 40.989 L 299.076 41.781 L 298.952 42.605 L 298.532 43.265 L 297.893 43.965 L 296.834 45.036 L 296.521 45.584 L 296.694 46.161 L 300.608 50.117 L 301.119 50.504 L 301.614 50.504 L 302.191 50.117 L 303.592 48.774 L 304.004 48.444 L 304.601 48.156 L 305.384 48.011 L 306.064 48.156 L 306.727 48.358 L 307.79 48.774 L 308.594 49.202 L 309.303 49.449 L 309.982 49.8 L 310.436 50.504 L 310.724 51.056 L 310.827 53.694 L 310.934 54.332 L 311.371 54.744 L 317.255 54.744 L 317.82 54.567 L 318.141 54.176 L 318.141 51.765 L 318.285 51.168 L 318.574 50.504 L 319.027 49.921 L 319.942 49.342 Z " fill="rgb(13,17,23)"/></g><g><path d=" M 739.44 32.645 C 739.44 30.105 741.495 28.043 744.027 28.043 C 746.559 28.043 748.615 30.105 748.615 32.645 C 748.615 35.186 746.559 37.248 744.027 37.248 C 741.495 37.248 739.44 35.186 739.44 32.645 Z  M 734.863 32.645 C 734.863 27.571 738.97 23.452 744.027 23.452 C 749.085 23.452 753.191 27.571 753.191 32.645 C 753.191 37.72 749.085 41.839 744.027 41.839 C 738.97 41.839 734.863 37.72 734.863 32.645 Z " fill-rule="evenodd" fill="rgb(188,190,196)"/><path d=" M 738.539 15.855 L 739.631 18.41 L 740.661 21.047 L 741.959 20.717 L 743.401 20.532 L 744.782 20.532 L 745.935 20.717 L 747.11 21.047 L 748.498 21.459 L 749.652 21.933 L 750.497 22.424 L 751.28 22.984 L 752.124 23.622 L 752.866 24.364 L 753.505 25.168 L 754.115 26.015 L 754.65 26.927 L 755.104 27.854 L 755.495 28.976 L 755.763 29.968 L 755.928 30.916 L 756.018 32.181 L 756.018 33.194 L 755.928 34.369 L 755.643 35.798 L 755.293 36.787 L 754.799 37.962 L 754.115 39.095 L 753.286 40.207 L 752.545 41.134 L 751.618 41.897 L 750.691 42.577 L 749.887 43.071 L 751.947 48.242 L 752.652 48.032 L 753.394 48.032 L 754.115 48.242 L 754.799 48.671 L 755.495 49.262 L 756.113 49.824 L 756.566 50.257 L 756.999 50.504 L 757.514 50.504 L 757.988 50.03 L 761.647 46.425 L 761.96 45.928 L 761.96 45.477 L 761.647 45.045 L 760.93 44.385 L 760.332 43.726 L 759.838 43.188 L 759.529 42.346 L 759.405 41.48 L 759.529 40.776 L 760.724 38.165 L 761.095 37.356 L 761.548 36.985 L 762.063 36.594 L 762.599 36.388 L 763.402 36.388 L 765.157 36.388 L 765.673 36.289 L 765.982 35.98 L 766.208 35.465 L 766.208 29.968 L 766.208 29.563 L 765.891 29.181 L 765.458 28.888 L 762.904 28.888 L 762.232 28.711 L 761.548 28.32 L 761.095 27.854 L 760.724 27.351 L 760.332 26.015 L 760.048 25.415 L 759.838 24.859 L 759.529 24.208 L 759.405 23.416 L 759.529 22.592 L 759.949 21.933 L 760.588 21.232 L 761.647 20.161 L 761.96 19.613 L 761.787 19.036 L 757.872 15.081 L 757.362 14.693 L 756.867 14.693 L 756.29 15.081 L 754.889 16.424 L 754.477 16.754 L 753.88 17.042 L 753.097 17.186 L 752.417 17.042 L 751.754 16.84 L 750.691 16.424 L 749.887 15.995 L 749.178 15.748 L 748.498 15.398 L 748.045 14.693 L 747.757 14.141 L 747.654 11.504 L 747.547 10.865 L 747.11 10.453 L 741.226 10.453 L 740.661 10.631 L 740.34 11.022 L 740.34 13.432 L 740.196 14.03 L 739.907 14.693 L 739.454 15.277 L 738.539 15.855 Z " fill="rgb(188,190,196)"/><path d=" M 749.652 49.342 L 748.56 46.788 L 747.53 44.151 L 746.232 44.48 L 744.79 44.666 L 743.41 44.666 L 742.256 44.48 L 741.082 44.151 L 739.693 43.739 L 738.539 43.265 L 737.695 42.774 L 736.912 42.214 L 736.067 41.575 L 735.325 40.834 L 734.687 40.03 L 734.077 39.183 L 733.541 38.271 L 733.088 37.344 L 732.696 36.221 L 732.429 35.23 L 732.264 34.282 L 732.173 33.017 L 732.173 32.003 L 732.264 30.829 L 732.548 29.399 L 732.898 28.41 L 733.393 27.236 L 734.077 26.103 L 734.905 24.99 L 735.647 24.063 L 736.574 23.301 L 737.501 22.621 L 738.304 22.127 L 736.244 16.955 L 735.54 17.166 L 734.798 17.166 L 734.077 16.955 L 733.393 16.527 L 732.696 15.936 L 732.078 15.373 L 731.625 14.941 L 731.192 14.693 L 730.677 14.693 L 730.204 15.167 L 726.545 18.773 L 726.231 19.269 L 726.231 19.72 L 726.545 20.153 L 727.262 20.812 L 727.859 21.471 L 728.353 22.01 L 728.662 22.852 L 728.786 23.717 L 728.662 24.422 L 727.468 27.032 L 727.097 27.842 L 726.643 28.213 L 726.128 28.604 L 725.593 28.81 L 724.789 28.81 L 723.034 28.81 L 722.519 28.909 L 722.21 29.218 L 721.983 29.733 L 721.983 35.23 L 721.983 35.635 L 722.3 36.016 L 722.733 36.309 L 725.288 36.309 L 725.959 36.486 L 726.643 36.878 L 727.097 37.344 L 727.468 37.846 L 727.859 39.183 L 728.143 39.783 L 728.353 40.339 L 728.662 40.989 L 728.786 41.781 L 728.662 42.605 L 728.242 43.265 L 727.603 43.965 L 726.545 45.036 L 726.231 45.584 L 726.404 46.161 L 730.319 50.117 L 730.83 50.504 L 731.324 50.504 L 731.901 50.117 L 733.302 48.774 L 733.714 48.444 L 734.312 48.156 L 735.095 48.011 L 735.774 48.156 L 736.438 48.358 L 737.501 48.774 L 738.304 49.202 L 739.013 49.449 L 739.693 49.8 L 740.146 50.504 L 740.435 51.056 L 740.538 53.694 L 740.645 54.332 L 741.082 54.744 L 746.966 54.744 L 747.53 54.567 L 747.851 54.176 L 747.851 51.765 L 747.996 51.168 L 748.284 50.504 L 748.737 49.921 L 749.652 49.342 Z " fill="rgb(13,17,23)"/></g><path d=" M 511.636 59.956 L 511.636 89.487 L 507.944 89.487 L 507.944 4.585 L 548.806 4.585 L 548.806 8.276 L 511.636 8.276 L 511.636 11.968 L 548.806 11.968 L 548.806 15.659 L 511.636 15.659 L 511.636 19.35 L 548.806 19.35 L 548.806 23.042 L 511.636 23.042 L 511.636 41.499 L 547.063 41.499 L 547.063 45.19 L 511.636 45.19 L 511.636 48.882 L 547.063 48.882 L 547.063 52.573 L 511.636 52.573 L 511.636 56.264 L 547.063 56.264 L 547.063 59.956 L 511.636 59.956 L 511.636 59.956 Z  M 504.253 4.585 L 504.253 89.487 L 500.561 89.487 L 500.561 4.585 L 504.253 4.585 L 504.253 4.585 Z  M 496.87 4.585 L 496.87 89.487 L 493.179 89.487 L 493.179 4.585 L 496.87 4.585 L 496.87 4.585 Z  M 489.487 4.585 L 489.487 89.487 L 485.796 89.487 L 485.796 4.585 L 489.487 4.585 L 489.487 4.585 Z  M 609.765 64.57 L 594.179 64.57 L 595.666 60.879 L 608.279 60.879 L 609.765 64.57 L 609.765 64.57 Z  M 612.739 71.953 L 591.308 71.953 L 592.744 68.262 L 611.15 68.262 L 612.739 71.953 L 612.739 71.953 Z  M 615.61 79.336 L 588.437 79.336 L 589.873 75.644 L 614.072 75.644 L 615.61 79.336 L 615.61 79.336 Z  M 590.027 9.558 L 558.445 89.487 L 554.446 89.487 L 588.027 4.585 L 592.026 4.585 L 625.556 89.487 L 621.609 89.487 L 590.027 9.558 L 590.027 9.558 Z  M 562.392 89.487 L 590.488 18.325 L 592.59 23.042 L 566.34 89.487 L 562.392 89.487 L 562.392 89.487 Z  M 570.339 89.487 L 594.59 28.066 L 596.538 33.142 L 574.338 89.487 L 570.339 89.487 L 570.339 89.487 Z  M 578.286 89.487 L 598.486 38.218 L 600.434 43.396 L 582.234 89.487 L 578.286 89.487 L 578.286 89.487 Z  M 615.815 4.585 L 649.397 89.487 L 645.398 89.487 L 611.867 4.585 L 615.815 4.585 L 615.815 4.585 Z  M 603.921 4.585 L 607.868 4.585 L 641.45 89.487 L 637.502 89.487 L 603.921 4.585 L 603.921 4.585 Z  M 595.974 4.585 L 599.922 4.585 L 633.503 89.487 L 629.504 89.487 L 595.974 4.585 L 595.974 4.585 Z  M 714.56 33.603 L 714.56 33.603 L 711.535 35.603 L 711.535 35.603 Q 708.767 31.501 704.332 29.117 L 704.332 29.117 L 704.332 29.117 Q 699.897 26.733 694.719 26.733 L 694.719 26.733 L 694.719 26.733 Q 686.311 26.733 680.364 32.68 L 680.364 32.68 L 680.364 32.68 Q 674.416 38.628 674.416 47.036 L 674.416 47.036 L 674.416 47.036 Q 674.416 55.444 680.364 61.391 L 680.364 61.391 L 680.364 61.391 Q 686.311 67.339 694.719 67.339 L 694.719 67.339 L 694.719 67.339 Q 699.897 67.339 704.332 64.929 L 704.332 64.929 L 704.332 64.929 Q 708.767 62.519 711.535 58.418 L 711.535 58.418 L 714.509 60.571 L 714.509 60.571 Q 711.228 65.39 705.998 68.21 L 705.998 68.21 L 705.998 68.21 Q 700.769 71.03 694.719 71.03 L 694.719 71.03 L 694.719 71.03 Q 689.848 71.03 685.414 69.133 L 685.414 69.133 L 685.414 69.133 Q 680.979 67.236 677.749 64.006 L 677.749 64.006 L 677.749 64.006 Q 674.519 60.776 672.622 56.341 L 672.622 56.341 L 672.622 56.341 Q 670.725 51.907 670.725 47.036 L 670.725 47.036 L 670.725 47.036 Q 670.725 42.165 672.622 37.731 L 672.622 37.731 L 672.622 37.731 Q 674.519 33.296 677.749 30.066 L 677.749 30.066 L 677.749 30.066 Q 680.979 26.836 685.414 24.939 L 685.414 24.939 L 685.414 24.939 Q 689.848 23.042 694.719 23.042 L 694.719 23.042 L 694.719 23.042 Q 700.82 23.042 706.05 25.887 L 706.05 25.887 L 706.05 25.887 Q 711.279 28.733 714.56 33.603 Z  M 720.661 29.399 L 720.661 29.399 L 717.585 31.399 L 717.585 31.399 Q 713.791 25.862 707.767 22.606 L 707.767 22.606 L 707.767 22.606 Q 701.743 19.35 694.719 19.35 L 694.719 19.35 L 694.719 19.35 Q 687.182 19.35 680.825 23.067 L 680.825 23.067 L 680.825 23.067 Q 674.468 26.784 670.751 33.142 L 670.751 33.142 L 670.751 33.142 Q 667.033 39.499 667.033 47.036 L 667.033 47.036 L 667.033 47.036 Q 667.033 54.573 670.751 60.93 L 670.751 60.93 L 670.751 60.93 Q 674.468 67.287 680.825 71.004 L 680.825 71.004 L 680.825 71.004 Q 687.182 74.722 694.719 74.722 L 694.719 74.722 L 694.719 74.722 Q 701.743 74.722 707.793 71.44 L 707.793 71.44 L 707.793 71.44 Q 713.843 68.159 717.637 62.571 L 717.637 62.571 L 720.661 64.673 L 720.661 64.673 Q 716.355 71.03 709.51 74.722 L 709.51 74.722 L 709.51 74.722 Q 702.666 78.413 694.719 78.413 L 694.719 78.413 L 694.719 78.413 Q 686.208 78.413 678.979 74.209 L 678.979 74.209 L 678.979 74.209 Q 671.75 70.005 667.546 62.776 L 667.546 62.776 L 667.546 62.776 Q 663.342 55.547 663.342 47.036 L 663.342 47.036 L 663.342 47.036 Q 663.342 38.525 667.546 31.296 L 667.546 31.296 L 667.546 31.296 Q 671.75 24.067 678.979 19.863 L 678.979 19.863 L 678.979 19.863 Q 686.208 15.659 694.719 15.659 L 694.719 15.659 L 694.719 15.659 Q 702.666 15.659 709.51 19.35 L 709.51 19.35 L 709.51 19.35 Q 716.355 23.042 720.661 29.399 Z  M 726.814 25.298 L 726.814 25.298 L 723.738 27.297 L 723.738 27.297 Q 718.918 20.222 711.253 16.095 L 711.253 16.095 L 711.253 16.095 Q 703.589 11.968 694.719 11.968 L 694.719 11.968 L 694.719 11.968 Q 687.593 11.968 681.081 14.736 L 681.081 14.736 L 681.081 14.736 Q 674.57 17.505 669.879 22.196 L 669.879 22.196 L 669.879 22.196 Q 665.188 26.887 662.419 33.398 L 662.419 33.398 L 662.419 33.398 Q 659.651 39.909 659.651 47.036 L 659.651 47.036 L 659.651 47.036 Q 659.651 54.162 662.419 60.674 L 662.419 60.674 L 662.419 60.674 Q 665.188 67.185 669.879 71.876 L 669.879 71.876 L 669.879 71.876 Q 674.57 76.567 681.081 79.336 L 681.081 79.336 L 681.081 79.336 Q 687.593 82.104 694.719 82.104 L 694.719 82.104 L 694.719 82.104 Q 703.64 82.104 711.279 77.951 L 711.279 77.951 L 711.279 77.951 Q 718.918 73.799 723.738 66.723 L 723.738 66.723 L 726.711 68.928 L 726.711 68.928 Q 721.379 76.721 712.945 81.258 L 712.945 81.258 L 712.945 81.258 Q 704.512 85.796 694.719 85.796 L 694.719 85.796 L 694.719 85.796 Q 684.209 85.796 675.288 80.592 L 675.288 80.592 L 675.288 80.592 Q 666.367 75.388 661.163 66.467 L 661.163 66.467 L 661.163 66.467 Q 655.959 57.546 655.959 47.036 L 655.959 47.036 L 655.959 47.036 Q 655.959 36.526 661.163 27.605 L 661.163 27.605 L 661.163 27.605 Q 666.367 18.684 675.288 13.48 L 675.288 13.48 L 675.288 13.48 Q 684.209 8.276 694.719 8.276 L 694.719 8.276 L 694.719 8.276 Q 704.563 8.276 713.022 12.865 L 713.022 12.865 L 713.022 12.865 Q 721.482 17.453 726.814 25.298 Z  M 732.864 21.094 L 732.864 21.094 L 729.787 23.093 L 729.787 23.093 Q 723.943 14.531 714.689 9.558 L 714.689 9.558 L 714.689 9.558 Q 705.434 4.585 694.719 4.585 L 694.719 4.585 L 694.719 4.585 Q 686.106 4.585 678.236 7.943 L 678.236 7.943 L 678.236 7.943 Q 670.366 11.301 664.675 16.992 L 664.675 16.992 L 664.675 16.992 Q 658.984 22.683 655.626 30.553 L 655.626 30.553 L 655.626 30.553 Q 652.268 38.423 652.268 47.036 L 652.268 47.036 L 652.268 47.036 Q 652.268 55.649 655.626 63.519 L 655.626 63.519 L 655.626 63.519 Q 658.984 71.389 664.675 77.08 L 664.675 77.08 L 664.675 77.08 Q 670.366 82.771 678.236 86.129 L 678.236 86.129 L 678.236 86.129 Q 686.106 89.487 694.719 89.487 L 694.719 89.487 L 694.719 89.487 Q 705.434 89.487 714.714 84.463 L 714.714 84.463 L 714.714 84.463 Q 723.994 79.438 729.839 70.876 L 729.839 70.876 L 732.812 73.132 L 732.812 73.132 Q 726.455 82.361 716.406 87.77 L 716.406 87.77 L 716.406 87.77 Q 706.357 93.179 694.719 93.179 L 694.719 93.179 L 694.719 93.179 Q 685.337 93.179 676.8 89.513 L 676.8 89.513 L 676.8 89.513 Q 668.264 85.847 662.086 79.669 L 662.086 79.669 L 662.086 79.669 Q 655.908 73.491 652.242 64.955 L 652.242 64.955 L 652.242 64.955 Q 648.576 56.418 648.576 47.036 L 648.576 47.036 L 648.576 47.036 Q 648.576 37.654 652.242 29.117 L 652.242 29.117 L 652.242 29.117 Q 655.908 20.581 662.086 14.403 L 662.086 14.403 L 662.086 14.403 Q 668.264 8.225 676.8 4.559 L 676.8 4.559 L 676.8 4.559 Q 685.337 0.893 694.719 0.893 L 694.719 0.893 L 694.719 0.893 Q 706.408 0.893 716.457 6.328 L 716.457 6.328 L 716.457 6.328 Q 726.506 11.763 732.864 21.094 Z  M 793.669 8.276 L 738.298 8.276 L 738.298 4.585 L 793.669 4.585 L 793.669 8.276 L 793.669 8.276 Z  M 793.669 15.659 L 738.298 15.659 L 738.298 11.968 L 793.669 11.968 L 793.669 15.659 L 793.669 15.659 Z  M 753.064 23.042 L 738.298 23.042 L 738.298 19.35 L 793.669 19.35 L 793.669 23.042 L 778.904 23.042 L 778.904 89.487 L 775.212 89.487 L 775.212 23.042 L 771.521 23.042 L 771.521 89.487 L 767.829 89.487 L 767.829 23.042 L 764.138 23.042 L 764.138 89.487 L 760.447 89.487 L 760.447 23.042 L 756.755 23.042 L 756.755 89.487 L 753.064 89.487 L 753.064 23.042 L 753.064 23.042 Z  M 831.916 32.68 L 831.916 32.68 L 831.916 32.68 Q 825.969 38.628 825.969 47.036 L 825.969 47.036 L 825.969 47.036 Q 825.969 55.444 831.916 61.391 L 831.916 61.391 L 831.916 61.391 Q 837.864 67.339 846.272 67.339 L 846.272 67.339 L 846.272 67.339 Q 854.68 67.339 860.627 61.391 L 860.627 61.391 L 860.627 61.391 Q 866.575 55.444 866.575 47.036 L 866.575 47.036 L 866.575 47.036 Q 866.575 38.628 860.627 32.68 L 860.627 32.68 L 860.627 32.68 Q 854.68 26.733 846.272 26.733 L 846.272 26.733 L 846.272 26.733 Q 837.864 26.733 831.916 32.68 Z  M 824.175 56.341 L 824.175 56.341 L 824.175 56.341 Q 822.278 51.907 822.278 47.036 L 822.278 47.036 L 822.278 47.036 Q 822.278 42.165 824.175 37.731 L 824.175 37.731 L 824.175 37.731 Q 826.072 33.296 829.302 30.066 L 829.302 30.066 L 829.302 30.066 Q 832.532 26.836 836.966 24.939 L 836.966 24.939 L 836.966 24.939 Q 841.401 23.042 846.272 23.042 L 846.272 23.042 L 846.272 23.042 Q 851.142 23.042 855.577 24.939 L 855.577 24.939 L 855.577 24.939 Q 860.012 26.836 863.242 30.066 L 863.242 30.066 L 863.242 30.066 Q 866.472 33.296 868.369 37.731 L 868.369 37.731 L 868.369 37.731 Q 870.266 42.165 870.266 47.036 L 870.266 47.036 L 870.266 47.036 Q 870.266 51.907 868.369 56.341 L 868.369 56.341 L 868.369 56.341 Q 866.472 60.776 863.242 64.006 L 863.242 64.006 L 863.242 64.006 Q 860.012 67.236 855.577 69.133 L 855.577 69.133 L 855.577 69.133 Q 851.142 71.03 846.272 71.03 L 846.272 71.03 L 846.272 71.03 Q 841.401 71.03 836.966 69.133 L 836.966 69.133 L 836.966 69.133 Q 832.532 67.236 829.302 64.006 L 829.302 64.006 L 829.302 64.006 Q 826.072 60.776 824.175 56.341 Z  M 822.303 33.142 L 822.303 33.142 L 822.303 33.142 Q 818.586 39.499 818.586 47.036 L 818.586 47.036 L 818.586 47.036 Q 818.586 54.573 822.303 60.93 L 822.303 60.93 L 822.303 60.93 Q 826.02 67.287 832.378 71.004 L 832.378 71.004 L 832.378 71.004 Q 838.735 74.722 846.272 74.722 L 846.272 74.722 L 846.272 74.722 Q 853.808 74.722 860.166 71.004 L 860.166 71.004 L 860.166 71.004 Q 866.523 67.287 870.24 60.93 L 870.24 60.93 L 870.24 60.93 Q 873.957 54.573 873.957 47.036 L 873.957 47.036 L 873.957 47.036 Q 873.957 39.499 870.24 33.142 L 870.24 33.142 L 870.24 33.142 Q 866.523 26.784 860.166 23.067 L 860.166 23.067 L 860.166 23.067 Q 853.808 19.35 846.272 19.35 L 846.272 19.35 L 846.272 19.35 Q 838.735 19.35 832.378 23.067 L 832.378 23.067 L 832.378 23.067 Q 826.02 26.784 822.303 33.142 Z  M 819.099 62.776 L 819.099 62.776 L 819.099 62.776 Q 814.895 55.547 814.895 47.036 L 814.895 47.036 L 814.895 47.036 Q 814.895 38.525 819.099 31.296 L 819.099 31.296 L 819.099 31.296 Q 823.303 24.067 830.532 19.863 L 830.532 19.863 L 830.532 19.863 Q 837.761 15.659 846.272 15.659 L 846.272 15.659 L 846.272 15.659 Q 854.783 15.659 862.012 19.863 L 862.012 19.863 L 862.012 19.863 Q 869.241 24.067 873.445 31.296 L 873.445 31.296 L 873.445 31.296 Q 877.649 38.525 877.649 47.036 L 877.649 47.036 L 877.649 47.036 Q 877.649 55.547 873.445 62.776 L 873.445 62.776 L 873.445 62.776 Q 869.241 70.005 862.012 74.209 L 862.012 74.209 L 862.012 74.209 Q 854.783 78.413 846.272 78.413 L 846.272 78.413 L 846.272 78.413 Q 837.761 78.413 830.532 74.209 L 830.532 74.209 L 830.532 74.209 Q 823.303 70.005 819.099 62.776 Z  M 813.972 33.398 L 813.972 33.398 L 813.972 33.398 Q 811.203 39.909 811.203 47.036 L 811.203 47.036 L 811.203 47.036 Q 811.203 54.162 813.972 60.674 L 813.972 60.674 L 813.972 60.674 Q 816.741 67.185 821.432 71.876 L 821.432 71.876 L 821.432 71.876 Q 826.123 76.567 832.634 79.336 L 832.634 79.336 L 832.634 79.336 Q 839.145 82.104 846.272 82.104 L 846.272 82.104 L 846.272 82.104 Q 853.398 82.104 859.909 79.336 L 859.909 79.336 L 859.909 79.336 Q 866.421 76.567 871.112 71.876 L 871.112 71.876 L 871.112 71.876 Q 875.803 67.185 878.572 60.674 L 878.572 60.674 L 878.572 60.674 Q 881.34 54.162 881.34 47.036 L 881.34 47.036 L 881.34 47.036 Q 881.34 39.909 878.572 33.398 L 878.572 33.398 L 878.572 33.398 Q 875.803 26.887 871.112 22.196 L 871.112 22.196 L 871.112 22.196 Q 866.421 17.505 859.909 14.736 L 859.909 14.736 L 859.909 14.736 Q 853.398 11.968 846.272 11.968 L 846.272 11.968 L 846.272 11.968 Q 839.145 11.968 832.634 14.736 L 832.634 14.736 L 832.634 14.736 Q 826.123 17.505 821.432 22.196 L 821.432 22.196 L 821.432 22.196 Q 816.741 26.887 813.972 33.398 Z  M 812.716 66.467 L 812.716 66.467 L 812.716 66.467 Q 807.512 57.546 807.512 47.036 L 807.512 47.036 L 807.512 47.036 Q 807.512 36.526 812.716 27.605 L 812.716 27.605 L 812.716 27.605 Q 817.92 18.684 826.841 13.48 L 826.841 13.48 L 826.841 13.48 Q 835.762 8.276 846.272 8.276 L 846.272 8.276 L 846.272 8.276 Q 856.782 8.276 865.703 13.48 L 865.703 13.48 L 865.703 13.48 Q 874.624 18.684 879.828 27.605 L 879.828 27.605 L 879.828 27.605 Q 885.032 36.526 885.032 47.036 L 885.032 47.036 L 885.032 47.036 Q 885.032 57.546 879.828 66.467 L 879.828 66.467 L 879.828 66.467 Q 874.624 75.388 865.703 80.592 L 865.703 80.592 L 865.703 80.592 Q 856.782 85.796 846.272 85.796 L 846.272 85.796 L 846.272 85.796 Q 835.762 85.796 826.841 80.592 L 826.841 80.592 L 826.841 80.592 Q 817.92 75.388 812.716 66.467 Z  M 807.179 30.553 L 807.179 30.553 L 807.179 30.553 Q 803.821 38.423 803.821 47.036 L 803.821 47.036 L 803.821 47.036 Q 803.821 55.649 807.179 63.519 L 807.179 63.519 L 807.179 63.519 Q 810.537 71.389 816.228 77.08 L 816.228 77.08 L 816.228 77.08 Q 821.919 82.771 829.789 86.129 L 829.789 86.129 L 829.789 86.129 Q 837.658 89.487 846.272 89.487 L 846.272 89.487 L 846.272 89.487 Q 854.885 89.487 862.755 86.129 L 862.755 86.129 L 862.755 86.129 Q 870.625 82.771 876.316 77.08 L 876.316 77.08 L 876.316 77.08 Q 882.007 71.389 885.365 63.519 L 885.365 63.519 L 885.365 63.519 Q 888.723 55.649 888.723 47.036 L 888.723 47.036 L 888.723 47.036 Q 888.723 38.423 885.365 30.553 L 885.365 30.553 L 885.365 30.553 Q 882.007 22.683 876.316 16.992 L 876.316 16.992 L 876.316 16.992 Q 870.625 11.301 862.755 7.943 L 862.755 7.943 L 862.755 7.943 Q 854.885 4.585 846.272 4.585 L 846.272 4.585 L 846.272 4.585 Q 837.658 4.585 829.789 7.943 L 829.789 7.943 L 829.789 7.943 Q 821.919 11.301 816.228 16.992 L 816.228 16.992 L 816.228 16.992 Q 810.537 22.683 807.179 30.553 Z  M 803.795 64.955 L 803.795 64.955 L 803.795 64.955 Q 800.129 56.418 800.129 47.036 L 800.129 47.036 L 800.129 47.036 Q 800.129 37.654 803.795 29.117 L 803.795 29.117 L 803.795 29.117 Q 807.461 20.581 813.639 14.403 L 813.639 14.403 L 813.639 14.403 Q 819.817 8.225 828.353 4.559 L 828.353 4.559 L 828.353 4.559 Q 836.889 0.893 846.272 0.893 L 846.272 0.893 L 846.272 0.893 Q 855.654 0.893 864.19 4.559 L 864.19 4.559 L 864.19 4.559 Q 872.727 8.225 878.905 14.403 L 878.905 14.403 L 878.905 14.403 Q 885.083 20.581 888.749 29.117 L 888.749 29.117 L 888.749 29.117 Q 892.414 37.654 892.414 47.036 L 892.414 47.036 L 892.414 47.036 Q 892.414 56.418 888.749 64.955 L 888.749 64.955 L 888.749 64.955 Q 885.083 73.491 878.905 79.669 L 878.905 79.669 L 878.905 79.669 Q 872.727 85.847 864.19 89.513 L 864.19 89.513 L 864.19 89.513 Q 855.654 93.179 846.272 93.179 L 846.272 93.179 L 846.272 93.179 Q 836.889 93.179 828.353 89.513 L 828.353 89.513 L 828.353 89.513 Q 819.817 85.847 813.639 79.669 L 813.639 79.669 L 813.639 79.669 Q 807.461 73.491 803.795 64.955 Z  M 927.944 50.932 L 927.944 47.241 L 950.195 47.241 L 950.195 47.241 Q 955.271 47.241 958.783 43.96 L 958.783 43.96 L 958.783 43.96 Q 962.295 40.679 962.295 34.629 L 962.295 34.629 L 962.295 34.629 Q 962.295 30.168 958.603 26.605 L 958.603 26.605 L 958.603 26.605 Q 954.912 23.042 950.195 23.042 L 950.195 23.042 L 918.511 23.042 L 918.511 89.487 L 914.819 89.487 L 914.819 19.35 L 950.195 19.35 L 950.195 19.35 Q 956.45 19.35 961.218 23.99 L 961.218 23.99 L 961.218 23.99 Q 965.986 28.63 965.986 34.629 L 965.986 34.629 L 965.986 34.629 Q 965.986 42.012 961.372 46.472 L 961.372 46.472 L 961.372 46.472 Q 956.758 50.932 950.195 50.932 L 950.195 50.932 L 927.944 50.932 L 927.944 50.932 Z  M 927.944 58.315 L 927.944 54.624 L 950.195 54.624 L 950.195 54.624 Q 958.193 54.624 963.935 49.01 L 963.935 49.01 L 963.935 49.01 Q 969.678 43.396 969.678 34.629 L 969.678 34.629 L 969.678 34.629 Q 969.678 27.092 963.807 21.376 L 963.807 21.376 L 963.807 21.376 Q 957.937 15.659 950.195 15.659 L 950.195 15.659 L 911.128 15.659 L 911.128 89.487 L 907.436 89.487 L 907.436 11.968 L 950.195 11.968 L 950.195 11.968 Q 956.296 11.968 961.654 15.095 L 961.654 15.095 L 961.654 15.095 Q 967.012 18.222 970.19 23.478 L 970.19 23.478 L 970.19 23.478 Q 973.369 28.733 973.369 34.629 L 973.369 34.629 L 973.369 34.629 Q 973.369 44.729 966.524 51.522 L 966.524 51.522 L 966.524 51.522 Q 959.68 58.315 950.195 58.315 L 950.195 58.315 L 927.944 58.315 L 927.944 58.315 Z  M 927.944 65.698 L 927.944 62.007 L 950.195 62.007 L 950.195 62.007 Q 957.373 62.007 963.525 58.469 L 963.525 58.469 L 963.525 58.469 Q 969.678 54.931 973.369 48.6 L 973.369 48.6 L 973.369 48.6 Q 977.06 42.268 977.06 34.629 L 977.06 34.629 L 977.06 34.629 Q 977.06 27.707 973.395 21.632 L 973.395 21.632 L 973.395 21.632 Q 969.729 15.556 963.525 11.916 L 963.525 11.916 L 963.525 11.916 Q 957.322 8.276 950.195 8.276 L 950.195 8.276 L 903.745 8.276 L 903.745 89.487 L 900.054 89.487 L 900.054 4.585 L 950.195 4.585 L 950.195 4.585 Q 958.244 4.585 965.32 8.712 L 965.32 8.712 L 965.32 8.712 Q 972.395 12.839 976.573 19.786 L 976.573 19.786 L 976.573 19.786 Q 980.752 26.733 980.752 34.629 L 980.752 34.629 L 980.752 34.629 Q 980.752 43.755 976.83 50.676 L 976.83 50.676 L 976.83 50.676 Q 972.908 57.597 966.191 61.494 L 966.191 61.494 L 975.727 89.487 L 971.831 89.487 L 962.705 63.237 L 962.705 63.237 Q 960.654 64.057 959.577 64.365 L 959.577 64.365 L 968.139 89.487 L 964.243 89.487 L 955.886 65.237 L 955.886 65.237 Q 955.425 65.339 952.605 65.596 L 952.605 65.596 L 960.552 89.487 L 956.655 89.487 L 948.811 65.698 L 945.478 65.698 L 952.964 89.487 L 949.067 89.487 L 941.531 65.698 L 927.944 65.698 L 927.944 65.698 Z  M 925.893 30.425 L 925.893 89.487 L 922.202 89.487 L 922.202 26.733 L 950.195 26.733 L 950.195 26.733 Q 953.63 26.733 956.117 29.066 L 956.117 29.066 L 956.117 29.066 Q 958.603 31.399 958.603 34.629 L 958.603 34.629 L 958.603 34.629 Q 958.603 43.55 950.195 43.55 L 950.195 43.55 L 927.944 43.55 L 927.944 39.858 L 950.195 39.858 L 950.195 39.858 Q 952.4 39.858 953.656 38.705 L 953.656 38.705 L 953.656 38.705 Q 954.912 37.551 954.912 34.629 L 954.912 34.629 L 954.912 34.629 Q 954.912 32.834 953.553 31.629 L 953.553 31.629 L 953.553 31.629 Q 952.195 30.425 950.195 30.425 L 950.195 30.425 L 925.893 30.425 L 925.893 30.425 Z  M 996.748 4.585 L 1017.051 46.78 L 1015.205 50.83 L 993.056 4.585 L 996.748 4.585 L 996.748 4.585 Z  M 1004.131 4.585 L 1020.742 38.679 L 1018.845 42.729 L 1000.439 4.585 L 1004.131 4.585 L 1004.131 4.585 Z  M 1011.513 4.585 L 1024.433 30.63 L 1022.588 34.68 L 1007.822 4.585 L 1011.513 4.585 L 1011.513 4.585 Z  M 1019.768 89.487 L 1019.768 60.879 L 1046.479 4.585 L 1050.171 4.585 L 1023.459 60.879 L 1023.459 89.487 L 1019.768 89.487 L 1019.768 89.487 Z  M 1027.151 89.487 L 1027.151 60.879 L 1053.862 4.585 L 1057.554 4.585 L 1030.842 60.879 L 1030.842 89.487 L 1027.151 89.487 L 1027.151 89.487 Z  M 1034.533 89.487 L 1034.533 60.879 L 1061.245 4.585 L 1064.936 4.585 L 1038.225 60.879 L 1038.225 89.487 L 1034.533 89.487 L 1034.533 89.487 Z  M 989.365 4.585 L 1014.231 56.982 L 1039.096 4.585 L 1042.788 4.585 L 1016.076 60.879 L 1016.076 89.487 L 1012.385 89.487 L 1012.385 60.879 L 985.674 4.585 L 989.365 4.585 L 989.365 4.585 Z  M 364.748 89.487 L 364.748 4.585 L 368.44 4.585 L 368.44 89.487 L 364.748 89.487 L 364.748 89.487 Z  M 357.366 89.487 L 357.366 4.585 L 361.057 4.585 L 361.057 89.487 L 357.366 89.487 L 357.366 89.487 Z  M 349.983 89.487 L 349.983 4.585 L 353.674 4.585 L 353.674 89.487 L 349.983 89.487 L 349.983 89.487 Z  M 342.6 89.487 L 342.6 4.585 L 346.291 4.585 L 346.291 89.487 L 342.6 89.487 L 342.6 89.487 Z  M 431.911 8.276 L 376.54 8.276 L 376.54 4.585 L 431.911 4.585 L 431.911 8.276 L 431.911 8.276 Z  M 431.911 15.659 L 376.54 15.659 L 376.54 11.968 L 431.911 11.968 L 431.911 15.659 L 431.911 15.659 Z  M 391.306 23.042 L 376.54 23.042 L 376.54 19.35 L 431.911 19.35 L 431.911 23.042 L 417.146 23.042 L 417.146 89.487 L 413.454 89.487 L 413.454 23.042 L 409.763 23.042 L 409.763 89.487 L 406.072 89.487 L 406.072 23.042 L 402.38 23.042 L 402.38 89.487 L 398.689 89.487 L 398.689 23.042 L 394.997 23.042 L 394.997 89.487 L 391.306 89.487 L 391.306 23.042 L 391.306 23.042 Z  M 89.687 89.487 L 89.687 45.139 L 93.379 45.139 L 93.379 89.487 L 89.687 89.487 L 89.687 89.487 Z  M 104.453 89.487 L 104.453 45.139 L 108.144 45.139 L 108.144 89.487 L 104.453 89.487 L 104.453 89.487 Z  M 97.07 89.487 L 97.07 45.139 L 100.762 45.139 L 100.762 89.487 L 97.07 89.487 L 97.07 89.487 Z  M 82.304 45.139 L 85.996 45.139 L 85.996 89.487 L 85.996 89.487 Q 76.255 93.179 65.796 93.179 L 65.796 93.179 L 65.796 93.179 Q 56.721 93.179 48.415 89.846 L 48.415 89.846 L 48.415 89.846 Q 40.11 86.513 33.804 80.592 L 33.804 80.592 L 33.804 80.592 Q 27.497 74.67 23.729 65.929 L 23.729 65.929 L 23.729 65.929 Q 19.961 57.187 19.961 47.036 L 19.961 47.036 L 19.961 47.036 Q 19.961 37.654 23.627 29.117 L 23.627 29.117 L 23.627 29.117 Q 27.292 20.581 33.47 14.403 L 33.47 14.403 L 33.47 14.403 Q 39.648 8.225 48.185 4.559 L 48.185 4.559 L 48.185 4.559 Q 56.721 0.893 66.103 0.893 L 66.103 0.893 L 66.103 0.893 Q 77.793 0.893 87.842 6.328 L 87.842 6.328 L 87.842 6.328 Q 97.89 11.763 104.248 21.094 L 104.248 21.094 L 101.172 23.093 L 101.172 23.093 Q 95.327 14.531 86.073 9.558 L 86.073 9.558 L 86.073 9.558 Q 76.819 4.585 66.103 4.585 L 66.103 4.585 L 66.103 4.585 Q 57.49 4.585 49.62 7.943 L 49.62 7.943 L 49.62 7.943 Q 41.75 11.301 36.059 16.992 L 36.059 16.992 L 36.059 16.992 Q 30.368 22.683 27.01 30.553 L 27.01 30.553 L 27.01 30.553 Q 23.652 38.423 23.652 47.036 L 23.652 47.036 L 23.652 47.036 Q 23.652 56.316 27.113 64.365 L 27.113 64.365 L 27.113 64.365 Q 30.574 72.414 36.341 77.849 L 36.341 77.849 L 36.341 77.849 Q 42.109 83.284 49.748 86.385 L 49.748 86.385 L 49.748 86.385 Q 57.387 89.487 65.642 89.487 L 65.642 89.487 L 65.642 89.487 Q 74.306 89.487 82.304 86.77 L 82.304 86.77 L 82.304 83.232 L 82.304 83.232 Q 74.665 85.796 66.257 85.796 L 66.257 85.796 L 66.257 85.796 Q 60.156 85.796 54.388 84.078 L 54.388 84.078 L 54.388 84.078 Q 48.62 82.361 43.724 79.003 L 43.724 79.003 L 43.724 79.003 Q 38.828 75.644 35.162 71.004 L 35.162 71.004 L 35.162 71.004 Q 31.496 66.365 29.42 60.187 L 29.42 60.187 L 29.42 60.187 Q 27.344 54.009 27.344 47.036 L 27.344 47.036 L 27.344 47.036 Q 27.344 36.526 32.547 27.605 L 32.547 27.605 L 32.547 27.605 Q 37.751 18.684 46.672 13.48 L 46.672 13.48 L 46.672 13.48 Q 55.593 8.276 66.103 8.276 L 66.103 8.276 L 66.103 8.276 Q 75.947 8.276 84.407 12.865 L 84.407 12.865 L 84.407 12.865 Q 92.866 17.453 98.198 25.298 L 98.198 25.298 L 95.122 27.297 L 95.122 27.297 Q 90.303 20.222 82.638 16.095 L 82.638 16.095 L 82.638 16.095 Q 74.973 11.968 66.103 11.968 L 66.103 11.968 L 66.103 11.968 Q 58.977 11.968 52.466 14.736 L 52.466 14.736 L 52.466 14.736 Q 45.954 17.505 41.263 22.196 L 41.263 22.196 L 41.263 22.196 Q 36.572 26.887 33.804 33.398 L 33.804 33.398 L 33.804 33.398 Q 31.035 39.909 31.035 47.036 L 31.035 47.036 L 31.035 47.036 Q 31.035 53.445 32.906 59.059 L 32.906 59.059 L 32.906 59.059 Q 34.778 64.673 38.085 68.851 L 38.085 68.851 L 38.085 68.851 Q 41.391 73.03 45.801 76.029 L 45.801 76.029 L 45.801 76.029 Q 50.21 79.028 55.414 80.566 L 55.414 80.566 L 55.414 80.566 Q 60.617 82.104 66.103 82.104 L 66.103 82.104 L 66.103 82.104 Q 74.614 82.104 82.304 79.233 L 82.304 79.233 L 82.304 75.542 L 82.304 75.542 Q 74.717 78.464 66.462 78.464 L 66.462 78.464 L 66.462 78.464 Q 60.207 78.464 54.516 76.336 L 54.516 76.336 L 54.516 76.336 Q 48.825 74.209 44.391 70.312 L 44.391 70.312 L 44.391 70.312 Q 39.956 66.416 37.341 60.366 L 37.341 60.366 L 37.341 60.366 Q 34.726 54.316 34.726 47.036 L 34.726 47.036 L 34.726 47.036 Q 34.726 38.525 38.93 31.296 L 38.93 31.296 L 38.93 31.296 Q 43.135 24.067 50.364 19.863 L 50.364 19.863 L 50.364 19.863 Q 57.593 15.659 66.103 15.659 L 66.103 15.659 L 66.103 15.659 Q 74.05 15.659 80.895 19.35 L 80.895 19.35 L 80.895 19.35 Q 87.739 23.042 92.046 29.399 L 92.046 29.399 L 88.97 31.399 L 88.97 31.399 Q 85.176 25.862 79.151 22.606 L 79.151 22.606 L 79.151 22.606 Q 73.127 19.35 66.103 19.35 L 66.103 19.35 L 66.103 19.35 Q 58.567 19.35 52.209 23.067 L 52.209 23.067 L 52.209 23.067 Q 45.852 26.784 42.135 33.142 L 42.135 33.142 L 42.135 33.142 Q 38.418 39.499 38.418 47.036 L 38.418 47.036 L 38.418 47.036 Q 38.418 52.265 39.905 56.777 L 39.905 56.777 L 39.905 56.777 Q 41.391 61.289 44.006 64.57 L 44.006 64.57 L 44.006 64.57 Q 46.621 67.851 50.133 70.159 L 50.133 70.159 L 50.133 70.159 Q 53.645 72.466 57.695 73.619 L 57.695 73.619 L 57.695 73.619 Q 61.745 74.773 66.103 74.773 L 66.103 74.773 L 66.103 74.773 Q 74.768 74.773 82.304 71.338 L 82.304 71.338 L 82.304 67.8 L 82.304 67.8 Q 75.024 71.03 66.565 71.03 L 66.565 71.03 L 66.565 71.03 Q 61.694 71.03 57.387 69.543 L 57.387 69.543 L 57.387 69.543 Q 53.081 68.056 49.62 65.185 L 49.62 65.185 L 49.62 65.185 Q 46.159 62.314 44.134 57.623 L 44.134 57.623 L 44.134 57.623 Q 42.109 52.932 42.109 47.036 L 42.109 47.036 L 42.109 47.036 Q 42.109 42.165 44.006 37.731 L 44.006 37.731 L 44.006 37.731 Q 45.903 33.296 49.133 30.066 L 49.133 30.066 L 49.133 30.066 Q 52.363 26.836 56.798 24.939 L 56.798 24.939 L 56.798 24.939 Q 61.233 23.042 66.103 23.042 L 66.103 23.042 L 66.103 23.042 Q 72.204 23.042 77.434 25.887 L 77.434 25.887 L 77.434 25.887 Q 82.663 28.733 85.945 33.603 L 85.945 33.603 L 82.92 35.603 L 82.92 35.603 Q 80.151 31.501 75.716 29.117 L 75.716 29.117 L 75.716 29.117 Q 71.282 26.733 66.103 26.733 L 66.103 26.733 L 66.103 26.733 Q 57.695 26.733 51.748 32.68 L 51.748 32.68 L 51.748 32.68 Q 45.801 38.628 45.801 47.036 L 45.801 47.036 L 45.801 47.036 Q 45.801 52.214 47.492 56.188 L 47.492 56.188 L 47.492 56.188 Q 49.184 60.161 52.132 62.545 L 52.132 62.545 L 52.132 62.545 Q 55.08 64.929 58.695 66.134 L 58.695 66.134 L 58.695 66.134 Q 62.309 67.339 66.462 67.339 L 66.462 67.339 L 66.462 67.339 Q 74.973 67.339 82.304 63.801 L 82.304 63.801 L 82.304 45.139 L 82.304 45.139 Z  M 145.93 52.983 L 145.93 49.292 L 167.361 49.292 L 167.361 49.292 Q 172.641 49.292 176.307 45.729 L 176.307 45.729 L 176.307 45.729 Q 179.973 42.165 179.973 35.654 L 179.973 35.654 L 179.973 35.654 Q 179.973 30.784 176.128 26.913 L 176.128 26.913 L 176.128 26.913 Q 172.283 23.042 167.361 23.042 L 167.361 23.042 L 135.676 23.042 L 135.676 89.487 L 131.985 89.487 L 131.985 19.35 L 167.361 19.35 L 167.361 19.35 Q 173.821 19.35 178.742 24.324 L 178.742 24.324 L 178.742 24.324 Q 183.664 29.297 183.664 35.654 L 183.664 35.654 L 183.664 35.654 Q 183.664 43.498 178.896 48.241 L 178.896 48.241 L 178.896 48.241 Q 174.128 52.983 167.361 52.983 L 167.361 52.983 L 145.93 52.983 L 145.93 52.983 Z  M 145.93 60.366 L 145.93 56.675 L 167.361 56.675 L 167.361 56.675 Q 172.693 56.675 177.23 54.086 L 177.23 54.086 L 177.23 54.086 Q 181.767 51.496 184.562 46.626 L 184.562 46.626 L 184.562 46.626 Q 187.356 41.755 187.356 35.654 L 187.356 35.654 L 187.356 35.654 Q 187.356 27.759 181.332 21.709 L 181.332 21.709 L 181.332 21.709 Q 175.307 15.659 167.361 15.659 L 167.361 15.659 L 128.293 15.659 L 128.293 89.487 L 124.602 89.487 L 124.602 11.968 L 167.361 11.968 L 167.361 11.968 Q 173.564 11.968 179.05 15.249 L 179.05 15.249 L 179.05 15.249 Q 184.536 18.53 187.792 24.016 L 187.792 24.016 L 187.792 24.016 Q 191.047 29.502 191.047 35.654 L 191.047 35.654 L 191.047 35.654 Q 191.047 42.627 187.766 48.343 L 187.766 48.343 L 187.766 48.343 Q 184.485 54.06 179.076 57.213 L 179.076 57.213 L 179.076 57.213 Q 173.667 60.366 167.361 60.366 L 167.361 60.366 L 145.93 60.366 L 145.93 60.366 Z  M 145.93 67.749 L 145.93 64.057 L 167.361 64.057 L 167.361 64.057 Q 172.846 64.057 177.871 61.878 L 177.871 61.878 L 177.871 61.878 Q 182.895 59.7 186.612 55.982 L 186.612 55.982 L 186.612 55.982 Q 190.329 52.265 192.534 46.959 L 192.534 46.959 L 192.534 46.959 Q 194.739 41.653 194.739 35.654 L 194.739 35.654 L 194.739 35.654 Q 194.739 28.476 190.996 22.145 L 190.996 22.145 L 190.996 22.145 Q 187.253 15.813 180.921 12.044 L 180.921 12.044 L 180.921 12.044 Q 174.59 8.276 167.361 8.276 L 167.361 8.276 L 120.91 8.276 L 120.91 89.487 L 117.219 89.487 L 117.219 4.585 L 167.361 4.585 L 167.361 4.585 Q 175.564 4.585 182.741 8.866 L 182.741 8.866 L 182.741 8.866 Q 189.919 13.147 194.175 20.325 L 194.175 20.325 L 194.175 20.325 Q 198.43 27.502 198.43 35.654 L 198.43 35.654 L 198.43 35.654 Q 198.43 42.934 195.918 49.061 L 195.918 49.061 L 195.918 49.061 Q 193.406 55.188 189.15 59.238 L 189.15 59.238 L 189.15 59.238 Q 184.895 63.288 179.255 65.519 L 179.255 65.519 L 179.255 65.519 Q 173.616 67.749 167.361 67.749 L 167.361 67.749 L 145.93 67.749 L 145.93 67.749 Z  M 143.059 30.425 L 143.059 89.487 L 139.367 89.487 L 139.367 26.733 L 167.361 26.733 L 167.361 26.733 Q 171.001 26.733 173.641 29.399 L 173.641 29.399 L 173.641 29.399 Q 176.282 32.065 176.282 35.654 L 176.282 35.654 L 176.282 35.654 Q 176.282 45.6 167.361 45.6 L 167.361 45.6 L 145.93 45.6 L 145.93 41.909 L 167.361 41.909 L 167.361 41.909 Q 169.822 41.909 171.206 40.525 L 171.206 40.525 L 171.206 40.525 Q 172.59 39.14 172.59 35.654 L 172.59 35.654 L 172.59 35.654 Q 172.59 33.398 171.078 31.911 L 171.078 31.911 L 171.078 31.911 Q 169.565 30.425 167.361 30.425 L 167.361 30.425 L 143.059 30.425 L 143.059 30.425 Z  M 262.927 59.905 L 262.927 59.905 L 262.927 59.905 Q 262.927 57.905 261.722 57.239 L 261.722 57.239 L 261.722 57.239 Q 260.517 56.572 258.21 56.572 L 258.21 56.572 L 234.421 56.572 L 234.421 52.881 L 258.21 52.881 L 258.21 52.881 Q 266.618 52.881 266.618 59.905 L 266.618 59.905 L 266.618 59.905 Q 266.618 63.852 264.311 65.596 L 264.311 65.596 L 264.311 65.596 Q 262.004 67.339 258.21 67.339 L 258.21 67.339 L 234.421 67.339 L 234.421 63.647 L 258.21 63.647 L 258.21 63.647 Q 262.927 63.647 262.927 59.905 Z  M 232.37 30.425 L 232.37 89.487 L 228.679 89.487 L 228.679 26.733 L 258.21 26.733 L 258.21 26.733 Q 261.697 26.733 264.158 28.861 L 264.158 28.861 L 264.158 28.861 Q 266.618 30.989 266.618 34.167 L 266.618 34.167 L 266.618 34.167 Q 266.618 38.371 264.311 40.243 L 264.311 40.243 L 264.311 40.243 Q 262.004 42.114 258.21 42.114 L 258.21 42.114 L 234.421 42.114 L 234.421 38.423 L 258.21 38.423 L 258.21 38.423 Q 262.927 38.423 262.927 34.167 L 262.927 34.167 L 262.927 34.167 Q 262.927 32.424 261.594 31.424 L 261.594 31.424 L 261.594 31.424 Q 260.261 30.425 258.21 30.425 L 258.21 30.425 L 232.37 30.425 L 232.37 30.425 Z  M 234.421 49.497 L 234.421 45.805 L 258.21 45.805 L 258.21 45.805 Q 263.286 45.805 266.798 42.755 L 266.798 42.755 L 266.798 42.755 Q 270.31 39.704 270.31 34.167 L 270.31 34.167 L 270.31 34.167 Q 270.31 29.707 266.644 26.374 L 266.644 26.374 L 266.644 26.374 Q 262.978 23.042 258.21 23.042 L 258.21 23.042 L 224.988 23.042 L 224.988 89.487 L 221.296 89.487 L 221.296 19.35 L 258.21 19.35 L 258.21 19.35 Q 264.516 19.35 269.259 23.785 L 269.259 23.785 L 269.259 23.785 Q 274.001 28.22 274.001 34.167 L 274.001 34.167 L 274.001 34.167 Q 274.001 38.833 271.822 42.319 L 271.822 42.319 L 271.822 42.319 Q 269.643 45.805 265.952 47.702 L 265.952 47.702 L 265.952 47.702 Q 274.001 50.574 274.001 59.392 L 274.001 59.392 L 274.001 59.392 Q 274.001 66.365 269.387 70.543 L 269.387 70.543 L 269.387 70.543 Q 264.773 74.722 258.21 74.722 L 258.21 74.722 L 234.421 74.722 L 234.421 71.03 L 258.21 71.03 L 258.21 71.03 Q 263.286 71.03 266.798 67.98 L 266.798 67.98 L 266.798 67.98 Q 270.31 64.929 270.31 59.392 L 270.31 59.392 L 270.31 59.392 Q 270.31 55.649 267.644 52.778 L 267.644 52.778 L 267.644 52.778 Q 264.978 49.907 259.8 49.446 L 259.8 49.446 L 259.8 49.446 Q 259.287 49.497 258.21 49.497 L 258.21 49.497 L 234.421 49.497 L 234.421 49.497 Z  M 281.384 34.167 L 281.384 34.167 L 281.384 34.167 Q 281.384 41.345 276.308 47.138 L 276.308 47.138 L 276.308 47.138 Q 281.384 52.778 281.384 59.392 L 281.384 59.392 L 281.384 59.392 Q 281.384 65.801 278.18 71.056 L 278.18 71.056 L 278.18 71.056 Q 274.975 76.311 269.669 79.208 L 269.669 79.208 L 269.669 79.208 Q 264.363 82.104 258.21 82.104 L 258.21 82.104 L 234.421 82.104 L 234.421 78.413 L 258.21 78.413 L 258.21 78.413 Q 266.208 78.413 271.95 73.055 L 271.95 73.055 L 271.95 73.055 Q 277.693 67.698 277.693 59.392 L 277.693 59.392 L 277.693 59.392 Q 277.693 56.418 276.18 52.804 L 276.18 52.804 L 276.18 52.804 Q 274.668 49.189 272.002 47.292 L 272.002 47.292 L 272.002 47.292 Q 277.693 41.96 277.693 34.167 L 277.693 34.167 L 277.693 34.167 Q 277.693 26.682 271.848 21.17 L 271.848 21.17 L 271.848 21.17 Q 266.003 15.659 258.21 15.659 L 258.21 15.659 L 217.605 15.659 L 217.605 89.487 L 213.913 89.487 L 213.913 11.968 L 258.21 11.968 L 258.21 11.968 Q 264.311 11.968 269.669 14.967 L 269.669 14.967 L 269.669 14.967 Q 275.027 17.966 278.205 23.119 L 278.205 23.119 L 278.205 23.119 Q 281.384 28.271 281.384 34.167 Z  M 280.512 47.344 L 280.512 47.344 L 280.512 47.344 Q 285.075 41.242 285.075 34.167 L 285.075 34.167 L 285.075 34.167 Q 285.075 27.246 281.41 21.273 L 281.41 21.273 L 281.41 21.273 Q 277.744 15.3 271.54 11.788 L 271.54 11.788 L 271.54 11.788 Q 265.337 8.276 258.21 8.276 L 258.21 8.276 L 210.222 8.276 L 210.222 89.487 L 206.531 89.487 L 206.531 4.585 L 258.21 4.585 L 258.21 4.585 Q 266.311 4.585 273.36 8.584 L 273.36 8.584 L 273.36 8.584 Q 280.41 12.583 284.588 19.427 L 284.588 19.427 L 284.588 19.427 Q 288.767 26.272 288.767 34.167 L 288.767 34.167 L 288.767 34.167 Q 288.767 41.704 284.512 47.395 L 284.512 47.395 L 284.512 47.395 Q 288.767 53.291 288.767 59.392 L 288.767 59.392 L 288.767 59.392 Q 288.767 66.262 286.306 71.979 L 286.306 71.979 L 286.306 71.979 Q 283.845 77.695 279.667 81.489 L 279.667 81.489 L 279.667 81.489 Q 275.488 85.283 269.951 87.385 L 269.951 87.385 L 269.951 87.385 Q 264.414 89.487 258.21 89.487 L 258.21 89.487 L 234.421 89.487 L 234.421 85.796 L 258.21 85.796 L 258.21 85.796 Q 263.594 85.796 268.515 83.771 L 268.515 83.771 L 268.515 83.771 Q 273.437 81.745 277.077 78.259 L 277.077 78.259 L 277.077 78.259 Q 280.718 74.773 282.897 69.851 L 282.897 69.851 L 282.897 69.851 Q 285.075 64.929 285.075 59.392 L 285.075 59.392 L 285.075 59.392 Q 285.075 56.931 283.922 53.47 L 283.922 53.47 L 283.922 53.47 Q 282.768 50.01 280.512 47.344 Z " fill="rgb(204,189,146)"/></g></svg>